<svg width="130" height="125" viewBox="0 0 130 125" fill="none" xmlns="http://www.w3.org/2000/svg">
<path d="M38.4 8.85185L41 8L38.4 10.5556L36.6667 12.2593L34.9333 15.6667L32.3333 19.9259C31.1932 21.0466 29.8096 21.8886 28.2904 22.3863L28 22.4815C25.6956 23.0477 23.4592 23.8612 21.3295 24.9079L21.0667 25.037C19.9185 25.6013 18.8683 26.346 17.9559 27.2427L16.7333 28.4444L15 31V30.1481L15.8667 26.7407L16.7333 22.4815L16.8388 22.0667C17.3424 20.0867 18.1865 18.2093 19.3333 16.5185C22.1789 14.281 25.4266 12.5345 28.8667 11.4074L31.4667 10.9815C33.1951 10.6983 34.8886 10.2324 36.5186 9.59154L38.4 8.85185Z" fill="#3D563B" stroke="#3D563B" stroke-width="0.2"/>
<path d="M103.252 12.2371L103.445 8.99999L105.156 13.0001L106.297 15.6668L109.341 19.0965L112.956 23.8595C113.706 25.6132 114.038 27.5175 113.924 29.4216L113.904 29.7633C113.522 32.5476 113.447 35.3652 113.678 38.166L113.708 38.5227C113.833 40.0363 114.201 41.5198 114.798 42.9161L115.608 44.808L117.7 47.8562L116.748 47.4747L113.322 44.9968L108.945 42.1375L108.515 41.8265C106.532 40.3926 104.811 38.6286 103.426 36.6115L103.403 36.5343C102.161 32.428 101.657 28.1343 101.911 23.852L102.58 20.8057C103.024 18.7807 103.249 16.7137 103.251 14.6405L103.252 12.2371Z" fill="#3D563B" stroke="#3D563B" stroke-width="0.2"/>
<path d="M11.4019 81.9558L8.88856 82.9033L11.3361 80.2583L12.9677 78.495L14.5336 75.0342L16.9153 70.6918C17.9883 69.5322 19.3166 68.6384 20.7949 68.0811L21.0603 67.981C23.2949 67.3294 25.4516 66.4352 27.4916 65.3143L27.7515 65.1716C28.854 64.5658 29.8516 63.7863 30.706 62.863L31.8636 61.612L33.4623 59L33.4952 59.8487L32.7781 63.2766L32.0939 67.5532L32.0039 67.9835C31.5889 69.9672 30.836 71.8647 29.778 73.5932L29.7276 73.6368C27.041 75.9624 23.9642 77.7942 20.6393 79.0476L18.1095 79.5707C16.4279 79.9184 14.7887 80.4464 13.2202 81.1454L11.4019 81.9558Z" fill="#3D563B" stroke="#3D563B" stroke-width="0.2"/>
<path d="M24.9042 93.2186L24.5648 94.7594L24.0475 92.7067L23.7027 91.3382L22.5012 89.4579L21.1274 86.8934C20.9006 85.9934 20.8865 85.0531 21.0861 84.1467L21.122 83.984C21.5177 82.6751 21.7689 81.3269 21.8713 79.9633L21.8843 79.7897C21.9396 79.0528 21.8757 78.3118 21.6952 77.5952L21.4506 76.6244L20.6774 75L21.1057 75.2559L22.5631 76.7079L24.4488 78.4158L24.6318 78.5981C25.4751 79.4383 26.1677 80.4173 26.6794 81.4922L26.6847 81.531C26.9681 83.599 26.8833 85.7008 26.4343 87.7392L25.8807 89.1522C25.5127 90.0914 25.247 91.0675 25.0882 92.0637L24.9042 93.2186Z" fill="#3D563B" stroke="#3D563B" stroke-width="0.2"/>
<path d="M38.2 99.5926L40 99L38.2 100.778L37 101.963L35.8 104.333L34 107.296C33.2107 108.076 32.2517 108.662 31.198 109.009L31 109.074C29.4047 109.468 27.8568 110.034 26.3835 110.761L26.2 110.852C25.4052 111.244 24.6785 111.762 24.0478 112.385L23.2 113.222L22 115V114.407L22.6 112.037L23.2 109.074L23.2737 108.783C23.6219 107.407 24.206 106.102 25 104.926C26.9672 103.372 29.2185 102.154 31.6 101.37L33.4 101.074C34.5966 100.877 35.7688 100.553 36.8966 100.108L38.2 99.5926Z" fill="#3D563B" stroke="#3D563B" stroke-width="0.2"/>
<path d="M19.3842 97.9786L18 96.6844L20.4238 97.4094L22.0397 97.8927L24.6951 97.8068L28.1584 97.9626C29.2213 98.2805 30.196 98.8402 31.0063 99.5978L31.1586 99.7401C32.2703 100.95 33.5099 102.036 34.8557 102.979L35.0232 103.096C35.7493 103.605 36.5522 103.994 37.4015 104.248L38.5431 104.589L40.6788 104.788L40.159 105.073L37.7918 105.685L34.9047 106.582L34.614 106.657C33.2401 107.012 31.8149 107.127 30.4018 106.995C28.0936 106.016 25.9448 104.626 24.1134 102.914L22.989 101.477C22.2415 100.522 21.3944 99.6498 20.4619 98.8745L19.3842 97.9786Z" fill="#3D563B" stroke="#3D563B" stroke-width="0.2"/>
<path d="M87.9657 98.9294L86 98.7959L88.4445 100.356L90.0742 101.396L92.1828 103.862L95.1062 106.848C96.1756 107.53 97.3992 107.933 98.6647 108.019L98.7017 108.021C100.389 107.982 102.074 108.157 103.717 108.543L104.023 108.615C104.944 108.831 105.821 109.201 106.618 109.71L107.858 110.502L109.727 112.255L109.488 111.541L107.955 108.882L106.182 105.51L105.929 105.07C105.08 103.598 104.019 102.26 102.78 101.097L102.481 100.95C100.146 99.8016 97.6096 99.12 95.0136 98.9437L93.1676 99.1667C91.9421 99.3148 90.7025 99.3048 89.4795 99.137L87.9657 98.9294Z" fill="#529468" stroke="#529468" stroke-width="0.2"/>
<path d="M34.6 98.6667L33 98L34.6 100L35.6667 101.333L36.7333 104L38.3333 107.333C39.0332 108.208 39.9421 108.893 40.9762 109.323L41 109.333C42.4164 109.776 43.7703 110.398 45.0287 111.185L45.2667 111.333C45.9727 111.775 46.599 112.332 47.1191 112.982L47.9333 114L49 116V115.333L48.4667 112.667L47.9333 109.333L47.8445 108.889C47.5498 107.416 47.0406 105.993 46.3333 104.667L46.118 104.451C44.4995 102.833 42.5795 101.547 40.4667 100.667L38.8667 100.333C37.8045 100.112 36.7753 99.7543 35.8049 99.2691L34.6 98.6667Z" fill="#529468" stroke="#529468" stroke-width="0.2"/>
<path d="M13.7306 74.4069L12.0001 74.3089L14.173 75.6647L15.6217 76.5686L17.5127 78.7302L20.1281 81.3438C21.0785 81.9369 22.163 82.2809 23.2815 82.3443L23.3073 82.3457C24.7903 82.2933 26.2739 82.431 27.722 82.7554L27.9959 82.8167C28.8083 82.9987 29.5841 83.3168 30.2905 83.7575L31.3963 84.4475L33.0661 85.9803L32.8449 85.3514L31.457 83.0127L29.8478 80.0452L29.6167 79.6558C28.8497 78.3633 27.8973 77.1902 26.7901 76.1738L26.5154 76.0421C24.4516 75.0523 22.2138 74.4764 19.9285 74.347L18.3086 74.5634C17.2331 74.7071 16.1436 74.7112 15.0671 74.5754L13.7306 74.4069Z" fill="#529468" stroke="#529468" stroke-width="0.2"/>
<path d="M27.4157 83.4674L27.7245 81L25.5842 83.9687L24.1573 85.9479L20.899 88.4284L16.9272 91.8985C15.9909 93.1971 15.396 94.7102 15.1972 96.2987L15.1914 96.3451C15.1206 98.4739 14.779 100.585 14.175 102.628L14.0624 103.008C13.7241 104.152 13.1949 105.231 12.4971 106.199L11.4109 107.705L9.06828 109.935L9.984 109.685L13.4446 107.943L17.821 105.951L18.3926 105.663C20.3081 104.699 22.071 103.458 23.6242 101.979L23.831 101.613C25.4453 98.7532 26.4856 95.6057 26.8935 92.3473L26.7446 90.0052C26.6457 88.4503 26.7469 86.8892 27.0457 85.36L27.4157 83.4674Z" fill="#529468" stroke="#529468" stroke-width="0.2"/>
<path d="M10.3789 52.9346L7.99996 52.2107L10.5615 54.8247L12.2692 56.5673L14.1596 60.2L16.9038 64.704C18.0243 65.8474 19.4142 66.6909 20.9457 67.157L20.9904 67.1706C23.0762 67.6024 25.0986 68.2979 27.0087 69.2405L27.3647 69.4161C28.4346 69.9441 29.4076 70.649 30.2426 71.5012L31.5426 72.8278L33.3416 75.5154L33.2503 74.5704L32.1225 70.864L30.9033 66.2126L30.717 65.6004C30.0928 63.5489 29.1693 61.6006 27.9765 59.8186L27.6506 59.5525C25.107 57.4755 22.1823 55.9152 19.0407 54.9591L16.7074 54.7077C15.1583 54.5407 13.6371 54.1755 12.1811 53.621L10.3789 52.9346Z" fill="#529468" stroke="#529468" stroke-width="0.2"/>
<path d="M25.3503 27.7843L24.9489 25L23.5022 28.8794L22.5378 31.4657L19.7252 35.147L16.4305 40.1215C15.7976 41.8184 15.6014 43.6472 15.8598 45.4397L15.8674 45.4921C16.4272 47.8358 16.6863 50.2413 16.6386 52.6505L16.6297 53.0995C16.6029 54.4489 16.3483 55.7842 15.8767 57.0488L15.1425 59.0176L13.254 62.1514L14.1781 61.6039L17.4324 58.6681L21.6108 55.1849L22.1484 54.6999C23.9497 53.075 25.5015 51.1932 26.7536 49.1154L26.8696 48.6538C27.775 45.0508 27.9681 41.3056 27.438 37.6285L26.5746 35.118C26.0014 33.4512 25.6447 31.7176 25.5131 29.9599L25.3503 27.7843Z" fill="#529468" stroke="#529468" stroke-width="0.2"/>
<path d="M59.0259 112.472L57 115.133L61.4947 113.126L64.4911 111.788L69.9563 111.104L76.9197 109.751C78.8858 108.873 80.5997 107.515 81.904 105.802L81.9421 105.752C83.4624 103.323 85.2856 101.099 87.3679 99.131L87.7559 98.7643C88.9222 97.6622 90.2664 96.7651 91.7316 96.1108L94.0126 95.0921L98.2434 94.081L97.0091 93.7541L91.8077 93.4422L85.372 92.8033L84.5128 92.7518C81.6337 92.5791 78.745 92.8321 75.9398 93.5025L75.4518 93.7889C71.6427 96.0246 68.3067 98.9826 65.6313 102.497L64.2226 105.321C63.2873 107.197 62.1151 108.944 60.7346 110.521L59.0259 112.472Z" fill="#529468" stroke="#529468" stroke-width="0.2"/>
<path d="M29.9653 60.2884L30.7669 61.1489L29.2888 60.5973L28.3033 60.2296L26.6413 60.1707L24.4865 59.928C23.8384 59.6861 23.2556 59.2967 22.7841 58.7906L22.6994 58.6998C22.064 57.903 21.3433 57.1781 20.5501 56.5382L20.4491 56.4567C20.0205 56.1108 19.5389 55.8363 19.0229 55.6438L18.3238 55.3829L17 55.1696L17.3383 55.0152L18.8459 54.7358L20.6919 54.3019L20.8811 54.2668C21.7535 54.1051 22.6472 54.0946 23.5232 54.2358L23.5493 54.249C24.9378 54.9505 26.1913 55.8922 27.2517 57.0305L27.8842 57.9681C28.3046 58.5914 28.7909 59.1676 29.3348 59.6867L29.9653 60.2884Z" fill="#3D563B" stroke="#3D563B" stroke-width="0.2"/>
<path d="M86.3713 19.8245L83.9761 21.2999L88.1109 21.0848L90.8674 20.9415L95.3635 22.0584L101.238 23.1037C103.047 23.0097 104.803 22.4626 106.345 21.5128L106.39 21.485C108.318 20.0395 110.422 18.8452 112.651 17.9312L113.067 17.7608C114.316 17.2488 115.642 16.9515 116.99 16.8814L119.088 16.7723L122.715 17.2591L121.845 16.6289L117.857 14.8102L113 12.3612L112.341 12.0608C110.134 11.054 107.79 10.3784 105.386 10.0556L104.916 10.1327C101.25 10.7345 97.737 12.0465 94.5739 13.9948L92.6136 15.7852C91.3121 16.9739 89.8633 17.9905 88.3028 18.8101L86.3713 19.8245Z" fill="#529468" stroke="#529468" stroke-width="0.2"/>
<path d="M26.9582 45.4351L27.5368 47.9011L25.3629 45.2891L23.9136 43.5477L20.869 41.6604L17.0997 38.9023C16.1466 37.7572 15.4732 36.4058 15.1329 34.9553L15.0718 34.695C14.7357 32.5257 14.1633 30.3998 13.3646 28.3551L13.2629 28.0947C12.8313 26.9897 12.2244 25.9615 11.4655 25.0497L10.4373 23.8143L8.19037 22L8.98803 22.073L12.1057 23.1627L16.0209 24.3254L16.4123 24.4622C18.2164 25.0928 19.8986 26.0288 21.3855 27.2295L21.4202 27.282C23.2662 30.0785 24.6029 33.1795 25.3684 36.4418L25.5482 38.8713C25.6677 40.4862 25.9609 42.0836 26.4228 43.6357L26.9582 45.4351Z" fill="#3D563B" stroke="#3D563B" stroke-width="0.2"/>
<path d="M19.3976 37.3848L17.3142 38.8255L18.9499 35.8467L20.0403 33.8608L20.683 30.3368L21.8709 25.8198C22.588 24.5138 23.5993 23.3928 24.8247 22.5454L25.0447 22.3933C26.9406 21.2869 28.7098 19.9764 30.3206 18.4851L30.5257 18.2951C31.3962 17.4892 32.1311 16.5482 32.702 15.5084L33.4756 14.0995L34.3422 11.3446L34.5661 12.1137L34.6924 15.4138L35.0427 19.4831L35.0585 19.8973C35.1317 21.807 34.8759 23.7151 34.3025 25.5382L34.2663 25.5897C32.339 28.3308 29.9419 30.7093 27.1858 32.6151L24.9905 33.6712C23.5312 34.3733 22.1519 35.2306 20.8763 36.2282L19.3976 37.3848Z" fill="#3D563B" stroke="#3D563B" stroke-width="0.2"/>
<path d="M53.9228 17.2974L55.838 16.9739L53.1362 16.0401L51.335 15.4175L48.7471 13.5376L45.2586 11.3464C44.0768 10.9379 42.8113 10.833 41.5783 11.0413L41.5423 11.0473C39.9339 11.4728 38.2779 11.6918 36.6142 11.699L36.3042 11.7004C35.3723 11.7044 34.4464 11.551 33.5657 11.2466L32.1945 10.7726L30 9.5214L30.3933 10.1501L32.4739 12.3473L34.9478 15.1733L35.2915 15.5362C36.4432 16.7525 37.7679 17.7922 39.223 18.6218L39.5435 18.6941C42.0455 19.259 44.6338 19.3298 47.1629 18.9026L48.8814 18.2648C50.0223 17.8413 51.2129 17.5662 52.4239 17.446L53.9228 17.2974Z" fill="#529468" stroke="#529468" stroke-width="0.2"/>
<path d="M79.2756 95.8955L77.9999 93.8434L80.713 95.5368L82.5217 96.6657L85.7678 97.4358L89.9183 98.7705C91.1082 99.5132 92.112 100.519 92.8526 101.71L93.0026 101.952C93.9741 103.81 95.141 105.56 96.4834 107.171L96.644 107.364C97.3661 108.231 98.2217 108.977 99.1786 109.574L100.447 110.366L102.975 111.315L102.256 111.495L99.1954 111.468L95.4163 111.622L95.0556 111.618C93.2697 111.603 91.5003 111.274 89.8284 110.646C87.3185 108.665 85.1621 106.255 83.474 103.54L82.5577 101.398C81.9484 99.9739 81.1919 98.6175 80.3003 97.3511L79.2756 95.8955Z" fill="#3D563B" stroke="#3D563B" stroke-width="0.2"/>
<path d="M73.025 102.843L75.8998 103.501L72.066 104.427L69.5101 105.044L65.9951 107.246L61.2022 109.756C59.5213 110.162 57.769 110.173 56.0832 109.787L55.7716 109.716C53.33 108.957 50.8132 108.466 48.2655 108.252L47.9456 108.225C46.5704 108.109 45.1854 108.216 43.8439 108.54L42.0355 108.977L39 110.386L39.4796 109.594L42.1961 106.909L45.3921 103.432L45.7284 103.1C47.3034 101.543 49.1356 100.27 51.1441 99.3376C55.0146 98.8455 59.0006 99.0316 62.8038 99.9021L65.4389 100.956C67.1905 101.657 69.0121 102.168 70.8726 102.481L73.025 102.843Z" fill="#3D563B" stroke="#3D563B" stroke-width="0.2"/>
</svg>
