<svg width="130" height="125" viewBox="0 0 130 125" fill="none" xmlns="http://www.w3.org/2000/svg">
<path d="M90.7485 8.85985L88.1484 8.00723L90.7485 10.5651L92.4819 12.2703L94.2153 15.6808L96.8154 19.9439C97.9556 21.0656 99.3396 21.9085 100.859 22.4068L101.149 22.5018C103.453 23.0686 105.69 23.8827 107.819 24.9302L108.083 25.0597C109.231 25.6244 110.281 26.3697 111.193 27.267L112.416 28.4702L114.149 31.028V30.1754L113.283 26.7649L112.416 22.5018L112.31 22.086C111.807 20.1046 110.963 18.2258 109.816 16.5334C106.971 14.2944 103.722 12.5458 100.282 11.4177L97.6821 10.9914C95.9536 10.708 94.2601 10.2417 92.6302 9.60029L90.7485 8.85985Z" fill="#3D563B" stroke="#3D563B" stroke-width="0.2"/>
<path d="M25.8938 12.2481L25.7012 9.00813L23.99 13.0118L22.8493 15.6809L19.8047 19.1137L16.1897 23.8811C15.4395 25.6364 15.1079 27.5421 15.2212 29.4474L15.2416 29.7902C15.6232 32.577 15.6989 35.3973 15.4674 38.2009L15.438 38.5575C15.3129 40.0725 14.9445 41.5575 14.3471 42.9553L13.5379 44.8485L11.4453 47.8995L12.3972 47.5176L15.8232 45.0375L20.2012 42.1756L20.6308 41.8646C22.6137 40.4293 24.3352 38.6635 25.72 36.6446L25.7429 36.5685C26.9845 32.4577 27.4896 28.1598 27.2347 23.8736L26.5662 20.8245C26.1217 18.7977 25.8969 16.7288 25.8955 14.6536L25.8938 12.2481Z" fill="#3D563B" stroke="#3D563B" stroke-width="0.2"/>
<path d="M117.748 82.0299L120.261 82.9782L117.813 80.3309L116.182 78.566L114.616 75.1021L112.234 70.7557C111.161 69.5951 109.832 68.7003 108.353 68.1423L108.089 68.0425C105.854 67.3903 103.698 66.4953 101.658 65.3736L101.397 65.2305C100.295 64.6242 99.2973 63.8441 98.4432 62.9202L97.2852 61.6677L95.6864 59.0533L95.6535 59.9028L96.3706 63.3338L97.0549 67.6143L97.145 68.0456C97.5599 70.0306 98.3128 71.9296 99.3708 73.6597L99.4223 73.7043C102.108 76.0313 105.185 77.8645 108.51 79.1191L111.04 79.6426C112.721 79.9907 114.361 80.5191 115.929 81.2187L117.748 82.0299Z" fill="#3D563B" stroke="#3D563B" stroke-width="0.2"/>
<path d="M104.245 93.3028L104.584 94.8451L105.102 92.7905L105.446 91.4208L106.648 89.5388L108.022 86.9719C108.249 86.0712 108.263 85.13 108.063 84.223L108.027 84.06C107.632 82.7499 107.38 81.4004 107.278 80.0355L107.265 79.8618C107.21 79.1243 107.273 78.3826 107.454 77.6653L107.699 76.6937L108.472 75.0678L108.043 75.324L106.586 76.7773L104.7 78.4867L104.517 78.669C103.674 79.5101 102.981 80.49 102.47 81.5659L102.464 81.6044C102.181 83.6745 102.266 85.7783 102.715 87.8186L103.268 89.2328C103.636 90.1728 103.902 91.1499 104.061 92.147L104.245 93.3028Z" fill="#3D563B" stroke="#3D563B" stroke-width="0.2"/>
<path d="M90.9486 99.6826L89.1485 99.0895L90.9486 100.869L92.1486 102.055L93.3486 104.428L95.1487 107.393C95.938 108.174 96.8973 108.76 97.9514 109.108L98.1488 109.173C99.7442 109.567 101.292 110.133 102.765 110.861L102.949 110.952C103.744 111.345 104.47 111.863 105.101 112.486L105.949 113.325L107.149 115.104V114.511L106.549 112.138L105.949 109.173L105.875 108.881C105.527 107.504 104.943 106.198 104.149 105.021C102.182 103.465 99.9303 102.247 97.5488 101.462L95.7487 101.165C94.5521 100.968 93.3799 100.644 92.2521 100.198L90.9486 99.6826Z" fill="#3D563B" stroke="#3D563B" stroke-width="0.2"/>
<path d="M109.765 98.0672L111.149 96.7718L108.725 97.4974L107.109 97.9812L104.454 97.8952L100.99 98.0512C99.9276 98.3694 98.9529 98.9295 98.1426 99.6876L97.9902 99.8303C96.8784 101.041 95.6388 102.128 94.2928 103.072L94.1254 103.19C93.3993 103.699 92.5962 104.088 91.7468 104.342L90.6053 104.684L88.4696 104.883L88.9894 105.168L91.3567 105.78L94.2439 106.678L94.5343 106.753C95.9085 107.109 97.3339 107.223 98.747 107.092C101.056 106.112 103.204 104.721 105.036 103.007L106.16 101.569C106.908 100.613 107.755 99.7399 108.687 98.9638L109.765 98.0672Z" fill="#3D563B" stroke="#3D563B" stroke-width="0.2"/>
<path d="M41.181 99.0189L43.1468 98.8852L40.7021 100.446L39.0724 101.487L36.9637 103.956L34.0402 106.944C32.9708 107.627 31.7469 108.03 30.481 108.116L30.4446 108.119C28.7574 108.079 27.072 108.255 25.4292 108.641L25.1227 108.713C24.2025 108.93 23.3254 109.3 22.5287 109.809L21.2878 110.601L19.4185 112.356L19.658 111.642L21.1912 108.981L22.9638 105.605L23.2173 105.165C24.0658 103.692 25.1269 102.352 26.3663 101.189L26.6662 101.041C29.0004 99.8917 31.5368 99.2096 34.1328 99.0331L35.9789 99.2563C37.2045 99.4045 38.444 99.3946 39.6669 99.2267L41.181 99.0189Z" fill="#529468" stroke="#529468" stroke-width="0.2"/>
<path d="M94.5487 98.7559L96.1488 98.0886L94.5487 100.09L93.482 101.425L92.4153 104.094L90.8153 107.43C90.1154 108.306 89.2063 108.991 88.1717 109.422L88.1485 109.432C86.7321 109.875 85.3782 110.498 84.12 111.285L83.8817 111.434C83.1756 111.876 82.5494 112.434 82.0294 113.084L81.2149 114.103L80.1482 116.105V115.438L80.6815 112.769L81.2149 109.432L81.3038 108.987C81.5985 107.512 82.1076 106.089 82.815 104.761L83.0311 104.545C84.6492 102.926 86.5689 101.639 88.6818 100.758L90.2819 100.424C91.3442 100.203 92.3733 99.8445 93.3436 99.3589L94.5487 98.7559Z" fill="#529468" stroke="#529468" stroke-width="0.2"/>
<path d="M115.419 74.4742L117.15 74.3761L114.977 75.7331L113.528 76.6378L111.637 78.8014L109.021 81.4174C108.071 82.0109 106.986 82.3553 105.867 82.4187L105.842 82.4202C104.359 82.3677 102.875 82.5055 101.427 82.8301L101.153 82.8916C100.341 83.0738 99.5649 83.3921 98.8587 83.8331L97.7526 84.5238L96.0827 86.058L96.3039 85.4285L97.6919 83.0878L99.3011 80.1176L99.5323 79.7276C100.299 78.4341 101.252 77.26 102.359 76.2427L102.634 76.1105C104.698 75.12 106.935 74.5438 109.221 74.4142L110.841 74.6309C111.916 74.7747 113.006 74.7787 114.082 74.6429L115.419 74.4742Z" fill="#529468" stroke="#529468" stroke-width="0.2"/>
<path d="M101.733 83.5428L101.424 81.0732L103.565 84.0447L104.992 86.0256L108.25 88.5084L112.222 91.9816C113.158 93.2814 113.753 94.7955 113.952 96.3849L113.958 96.4322C114.029 98.563 114.37 100.676 114.975 102.721L115.087 103.101C115.425 104.247 115.955 105.326 116.653 106.295L117.739 107.803L120.081 110.035L119.166 109.784L115.705 108.041L111.328 106.046L110.757 105.759C108.841 104.794 107.078 103.551 105.525 102.071L105.319 101.706C103.704 98.8428 102.663 95.6922 102.255 92.4308L102.404 90.0866C102.503 88.5303 102.402 86.9676 102.103 85.4369L101.733 83.5428Z" fill="#529468" stroke="#529468" stroke-width="0.2"/>
<path d="M118.771 52.9825L121.15 52.2579L118.588 54.8742L116.88 56.6185L114.99 60.2544L112.246 64.7625C111.125 65.907 109.735 66.7513 108.203 67.218L108.159 67.2313C106.073 67.6635 104.051 68.3596 102.141 69.3029L101.784 69.4789C100.714 70.0073 99.7414 70.7128 98.9066 71.5654L97.6062 72.8936L95.8071 75.5837L95.8984 74.6378L97.0263 70.9281L98.2455 66.2725L98.4319 65.6592C99.0561 63.6061 99.9796 61.6563 101.172 59.8727L101.499 59.6054C104.042 57.5272 106.967 55.9657 110.109 55.0088L112.442 54.7571C113.991 54.59 115.512 54.2245 116.968 53.6696L118.771 52.9825Z" fill="#529468" stroke="#529468" stroke-width="0.2"/>
<path d="M103.799 27.8094L104.2 25.0226L105.647 28.9055L106.611 31.4941L109.424 35.1788L112.719 40.1577C113.352 41.8562 113.548 43.6864 113.29 45.4803L113.282 45.5332C112.722 47.8791 112.463 50.2868 112.511 52.6984L112.52 53.1475C112.546 54.4982 112.801 55.8347 113.273 57.1007L114.007 59.071L115.895 62.2076L114.971 61.6596L111.717 58.7212L107.538 55.2348L107.001 54.7496C105.199 53.123 103.648 51.2395 102.395 49.1598L102.28 48.6986C101.374 45.0918 101.181 41.343 101.711 37.6626L102.574 35.1497C103.148 33.4814 103.504 31.7463 103.636 29.9868L103.799 27.8094Z" fill="#529468" stroke="#529468" stroke-width="0.2"/>
<path d="M70.1219 112.574L72.1479 115.237L67.653 113.228L64.6565 111.889L59.1911 111.204L52.2274 109.85C50.2612 108.971 48.5475 107.612 47.2436 105.898L47.2049 105.847C45.6845 103.417 43.861 101.19 41.7784 99.2202L41.3908 98.8536C40.2244 97.7505 38.8801 96.8525 37.4144 96.1974L35.1339 95.1781L30.9029 94.1661L32.1373 93.8388L37.3389 93.5267L43.7749 92.8872L44.6335 92.8357C47.513 92.6629 50.4021 92.916 53.2074 93.587L53.6938 93.8728C57.5042 96.1111 60.8407 99.072 63.5163 102.59L64.925 105.417C65.8603 107.294 67.0327 109.043 68.4134 110.621L70.1219 112.574Z" fill="#529468" stroke="#529468" stroke-width="0.2"/>
<path d="M99.1836 60.343L98.3819 61.2042L99.8602 60.6521L100.846 60.284L102.508 60.2251L104.663 59.9821C105.311 59.7401 105.894 59.3504 106.365 58.8439L106.45 58.7528C107.085 57.9553 107.806 57.2298 108.599 56.5892L108.7 56.5077C109.129 56.1616 109.61 55.8868 110.127 55.6941L110.826 55.433L112.149 55.2195L111.811 55.0649L110.303 54.7852L108.457 54.351L108.268 54.3159C107.396 54.1541 106.502 54.1435 105.626 54.2848L105.6 54.2978C104.211 55.0001 102.958 55.9427 101.897 57.082L101.265 58.0206C100.844 58.6444 100.358 59.2211 99.8141 59.7407L99.1836 60.343Z" fill="#3D563B" stroke="#3D563B" stroke-width="0.2"/>
<path d="M42.7754 19.8424L45.1707 21.3191L41.0358 21.1039L38.2791 20.9604L33.7829 22.0784L27.9083 23.1246C26.0995 23.0305 24.3436 22.483 22.8016 21.5324L22.7563 21.5044C20.8283 20.0576 18.7241 18.8622 16.4943 17.9473L16.0789 17.7769C14.8301 17.2644 13.5036 16.9668 12.1555 16.8967L10.0572 16.7875L6.43074 17.2747L7.30056 16.644L11.2884 14.8235L16.146 12.3724L16.8045 12.0717C19.0119 11.0641 21.3557 10.3878 23.7602 10.0647L24.2293 10.1418C27.8958 10.7442 31.4093 12.0573 34.5726 14.0075L36.5329 15.7995C37.8345 16.9893 39.2833 18.0068 40.8439 18.8272L42.7754 19.8424Z" fill="#529468" stroke="#529468" stroke-width="0.2"/>
<path d="M102.191 45.4762L101.612 47.9444L103.786 45.33L105.235 43.5871L108.28 41.698L112.05 38.9375C113.003 37.7913 113.676 36.439 114.016 34.9877L114.078 34.7264C114.414 32.5551 114.986 30.4272 115.785 28.3804L115.887 28.1201C116.318 27.0141 116.925 25.9849 117.684 25.072L118.712 23.8359L120.959 22.0199L120.162 22.093L117.044 23.1837L113.128 24.3474L112.738 24.4841C110.933 25.1154 109.251 26.0524 107.764 27.2541L107.73 27.3056C105.883 30.1053 104.546 33.2095 103.781 36.4747L103.601 38.9064C103.481 40.5228 103.188 42.1217 102.726 43.6754L102.191 45.4762Z" fill="#3D563B" stroke="#3D563B" stroke-width="0.2"/>
<path d="M109.752 37.4186L111.835 38.8606L110.199 35.8791L109.109 33.8914L108.466 30.3642L107.278 25.8432C106.561 24.536 105.55 23.4138 104.324 22.5654L104.104 22.4135C102.208 21.3062 100.439 19.9945 98.8285 18.502L98.6231 18.3117C97.7526 17.505 97.0177 16.5633 96.4469 15.5228L95.6731 14.1123L94.8065 11.3548L94.5826 12.1246L94.4562 15.4278L94.106 19.5007L94.0901 19.9158C94.017 21.827 94.2727 23.7366 94.8462 25.5613L94.883 25.6137C96.8099 28.3567 99.207 30.7371 101.963 32.6446L104.158 33.7017C105.618 34.4044 106.997 35.2624 108.273 36.2609L109.752 37.4186Z" fill="#3D563B" stroke="#3D563B" stroke-width="0.2"/>
<path d="M75.2251 17.313L73.3099 16.9892L76.0118 16.0546L77.8131 15.4314L80.401 13.5498L83.8896 11.3567C85.0715 10.9478 86.3372 10.8428 87.5704 11.0513L87.6061 11.0573C89.2145 11.4832 90.8706 11.7024 92.5342 11.7096L92.8444 11.711C93.7763 11.715 94.7022 11.5614 95.5829 11.2568L96.9542 10.7824L99.1489 9.53001L98.7555 10.1592L96.6748 12.3585L94.2008 15.187L93.857 15.5504C92.7054 16.7676 91.3806 17.8082 89.9255 18.6386L89.6045 18.7111C87.1027 19.2764 84.5145 19.3472 81.9853 18.9197L80.2667 18.2813C79.1258 17.8574 77.9352 17.582 76.7242 17.4618L75.2251 17.313Z" fill="#529468" stroke="#529468" stroke-width="0.2"/>
<path d="M49.8714 95.9822L51.1471 93.9282L48.434 95.6231L46.6252 96.7531L43.379 97.5239L39.2284 98.8598C38.0383 99.6032 37.0346 100.61 36.2942 101.802L36.1439 102.044C35.1724 103.904 34.0054 105.656 32.6627 107.269L32.5023 107.461C31.7802 108.329 30.9245 109.075 29.9673 109.673L28.6991 110.466L26.1716 111.416L26.8903 111.596L29.9509 111.569L33.7301 111.722L34.0903 111.719C35.8766 111.704 37.6462 111.374 39.3182 110.746C41.8287 108.762 43.9847 106.351 45.6729 103.633L46.5892 101.49C47.1985 100.064 47.9551 98.7067 48.8468 97.4389L49.8714 95.9822Z" fill="#3D563B" stroke="#3D563B" stroke-width="0.2"/>
<path d="M56.1223 102.936L53.2474 103.594L57.0813 104.521L59.6373 105.139L63.1524 107.343L67.9455 109.856C69.6265 110.262 71.379 110.273 73.0651 109.886L73.3764 109.815C75.818 109.056 78.3349 108.564 80.8825 108.35L81.2026 108.323C82.5779 108.207 83.9628 108.314 85.3043 108.638L87.113 109.075L90.1485 110.486L89.669 109.693L86.9523 107.006L83.7562 103.526L83.4197 103.193C81.8448 101.635 80.0126 100.361 78.004 99.4274L77.9443 99.4198C74.0741 98.9273 70.1472 99.1211 66.3438 99.9925L63.7087 101.047C61.957 101.749 60.1353 102.26 58.2749 102.574L56.1223 102.936Z" fill="#3D563B" stroke="#3D563B" stroke-width="0.2"/>
</svg>
