<svg width="57" height="52" viewBox="0 0 57 52" fill="none" xmlns="http://www.w3.org/2000/svg">
<path d="M52.203 20.4024V20.4024C51.874 18.7576 51.1744 17.1972 50.1579 15.841L49.6846 15.2095L49.4023 14.8668C47.9521 13.1066 46.3817 11.4476 44.703 9.9024V9.9024L43.5147 8.97767C42.6463 8.30189 41.6761 7.7717 40.6439 7.40888L40.5786 7.38593C39.664 7.06444 38.7818 6.65063 37.9461 6.15109V6.15109C36.1877 5.10001 34.1895 4.54391 32.1713 4.54391L28.2691 4.54391V4.54391C24.2629 4.54391 20.3624 5.59416 16.9572 7.5898L16.3308 7.95691V7.95691C12.4948 10.7812 9.18067 14.2428 6.52567 18.1985L5.38204 19.9024" stroke="#301D0D" stroke-width="4"/>
<path d="M3.71124 25.1039L1.83842 16.1262L9.42798 20.2974L3.71124 25.1039Z" fill="#301D0D"/>
<path d="M4.74959 31.9629V31.9629C5.11398 33.6002 5.8471 35.1451 6.89267 36.479L7.37954 37.1002L7.66918 37.4367C9.15698 39.1652 10.7628 40.7899 12.4745 42.2985V42.2985L13.6825 43.1974C14.5653 43.8543 15.5467 44.3634 16.5865 44.7039L16.6523 44.7254C17.5736 45.0271 18.4645 45.4217 19.3108 45.9031V45.9031C21.0915 46.916 23.1012 47.4288 25.119 47.3853L29.0202 47.301V47.301C33.0256 47.2146 36.9024 46.0804 40.2637 44.0117L40.8821 43.6311V43.6311C44.6563 40.7247 47.8949 37.1924 50.4639 33.1803L51.5704 31.4521" stroke="#301D0D" stroke-width="4"/>
<path d="M53.1286 26.2157L55.1947 35.1509L47.5169 31.1445L53.1286 26.2157Z" fill="#301D0D"/>
</svg>
